<svg width="1440" height="843" viewBox="0 0 1440 843" fill="none" xmlns="http://www.w3.org/2000/svg">
<g opacity="0.4">
<g filter="url(#filter0_f_84_655)">
<circle cx="739.161" cy="480.001" r="198.534" transform="rotate(-90 739.161 480.001)" fill="#FF7300"/>
</g>
<mask id="mask0_84_655" style="mask-type:alpha" maskUnits="userSpaceOnUse" x="-64" y="0" width="1608" height="843">
<rect x="-64" width="1608" height="843" fill="url(#paint0_radial_84_655)"/>
</mask>
<g mask="url(#mask0_84_655)">
<rect x="142.569" y="15.7646" width="108.455" height="108.455" stroke="white" stroke-width="1.37285"/>
<rect x="251.024" y="15.7646" width="108.455" height="108.455" stroke="white" stroke-width="1.37285"/>
<rect x="359.479" y="15.7646" width="108.455" height="108.455" stroke="white" stroke-width="1.37285"/>
<rect x="467.934" y="15.7646" width="108.455" height="108.455" stroke="white" stroke-width="1.37285"/>
<rect x="576.39" y="15.7646" width="108.455" height="108.455" stroke="white" stroke-width="1.37285"/>
<rect x="684.845" y="15.7646" width="108.455" height="108.455" stroke="white" stroke-width="1.37285"/>
<rect x="793.3" y="15.7646" width="108.455" height="108.455" fill="white" fill-opacity="0.25" stroke="white" stroke-width="1.37285"/>
<rect x="901.756" y="15.7646" width="108.455" height="108.455" stroke="white" stroke-width="1.37285"/>
<rect x="1010.21" y="15.7646" width="108.455" height="108.455" stroke="white" stroke-width="1.37285"/>
<rect x="142.569" y="124.22" width="108.455" height="108.455" stroke="white" stroke-width="1.37285"/>
<rect x="251.024" y="124.22" width="108.455" height="108.455" stroke="white" stroke-width="1.37285"/>
<rect x="359.479" y="124.22" width="108.455" height="108.455" stroke="white" stroke-width="1.37285"/>
<rect x="467.934" y="124.22" width="108.455" height="108.455" stroke="white" stroke-width="1.37285"/>
<rect x="576.39" y="124.22" width="108.455" height="108.455" stroke="white" stroke-width="1.37285"/>
<rect x="684.845" y="124.22" width="108.455" height="108.455" stroke="white" stroke-width="1.37285"/>
<rect x="793.3" y="124.22" width="108.455" height="108.455" stroke="white" stroke-width="1.37285"/>
<rect x="901.756" y="124.22" width="108.455" height="108.455" stroke="white" stroke-width="1.37285"/>
<rect x="1010.21" y="124.22" width="108.455" height="108.455" stroke="white" stroke-width="1.37285"/>
<rect x="142.569" y="232.675" width="108.455" height="108.455" stroke="white" stroke-width="1.37285"/>
<rect x="251.024" y="232.675" width="108.455" height="108.455" stroke="white" stroke-width="1.37285"/>
<rect x="359.479" y="232.675" width="108.455" height="108.455" stroke="white" stroke-width="1.37285"/>
<rect x="467.934" y="232.675" width="108.455" height="108.455" stroke="white" stroke-width="1.37285"/>
<rect x="576.39" y="232.675" width="108.455" height="108.455" fill="white" fill-opacity="0.25" stroke="white" stroke-width="1.37285"/>
<rect x="684.845" y="232.675" width="108.455" height="108.455" stroke="white" stroke-width="1.37285"/>
<rect x="793.3" y="232.675" width="108.455" height="108.455" fill="white" fill-opacity="0.25" stroke="white" stroke-width="1.37285"/>
<rect x="901.756" y="232.675" width="108.455" height="108.455" stroke="white" stroke-width="1.37285"/>
<rect x="1010.21" y="232.675" width="108.455" height="108.455" stroke="white" stroke-width="1.37285"/>
<rect x="142.569" y="341.13" width="108.455" height="108.455" stroke="white" stroke-width="1.37285"/>
<rect x="251.024" y="341.13" width="108.455" height="108.455" stroke="white" stroke-width="1.37285"/>
<rect x="359.479" y="341.13" width="108.455" height="108.455" stroke="white" stroke-width="1.37285"/>
<rect x="467.934" y="341.13" width="108.455" height="108.455" stroke="white" stroke-width="1.37285"/>
<rect x="576.39" y="341.13" width="108.455" height="108.455" stroke="white" stroke-width="1.37285"/>
<rect x="684.845" y="341.13" width="108.455" height="108.455" stroke="white" stroke-width="1.37285"/>
<rect x="793.3" y="341.13" width="108.455" height="108.455" stroke="white" stroke-width="1.37285"/>
<rect x="901.756" y="341.13" width="108.455" height="108.455" stroke="white" stroke-width="1.37285"/>
<rect x="1010.21" y="341.13" width="108.455" height="108.455" stroke="white" stroke-width="1.37285"/>
<rect x="142.569" y="449.586" width="108.455" height="108.455" stroke="white" stroke-width="1.37285"/>
<rect x="251.024" y="449.586" width="108.455" height="108.455" stroke="white" stroke-width="1.37285"/>
<rect x="359.48" y="449.586" width="108.455" height="108.455" stroke="white" stroke-width="1.37285"/>
<rect x="467.935" y="449.586" width="108.455" height="108.455" fill="white" fill-opacity="0.25" stroke="white" stroke-width="1.37285"/>
<rect x="576.39" y="449.586" width="108.455" height="108.455" stroke="white" stroke-width="1.37285"/>
<rect x="684.846" y="449.586" width="108.455" height="108.455" stroke="white" stroke-width="1.37285"/>
<rect x="793.301" y="449.586" width="108.455" height="108.455" stroke="white" stroke-width="1.37285"/>
<rect x="901.756" y="449.586" width="108.455" height="108.455" stroke="white" stroke-width="1.37285"/>
<rect x="1010.21" y="449.586" width="108.455" height="108.455" stroke="white" stroke-width="1.37285"/>
<rect x="142.569" y="558.041" width="108.455" height="108.455" stroke="white" stroke-width="1.37285"/>
<rect x="251.024" y="558.041" width="108.455" height="108.455" stroke="white" stroke-width="1.37285"/>
<rect x="359.479" y="558.041" width="108.455" height="108.455" stroke="white" stroke-width="1.37285"/>
<rect x="467.934" y="558.041" width="108.455" height="108.455" stroke="white" stroke-width="1.37285"/>
<rect x="576.39" y="558.041" width="108.455" height="108.455" stroke="white" stroke-width="1.37285"/>
<rect x="684.845" y="558.041" width="108.455" height="108.455" stroke="white" stroke-width="1.37285"/>
<rect x="793.3" y="558.041" width="108.455" height="108.455" stroke="white" stroke-width="1.37285"/>
<rect x="901.756" y="558.041" width="108.455" height="108.455" stroke="white" stroke-width="1.37285"/>
<rect x="1010.21" y="558.041" width="108.455" height="108.455" stroke="white" stroke-width="1.37285"/>
<rect x="142.569" y="666.496" width="108.455" height="108.455" stroke="white" stroke-width="1.37285"/>
<rect x="251.024" y="666.496" width="108.455" height="108.455" stroke="white" stroke-width="1.37285"/>
<rect x="359.479" y="666.496" width="108.455" height="108.455" stroke="white" stroke-width="1.37285"/>
<rect x="467.934" y="666.496" width="108.455" height="108.455" stroke="white" stroke-width="1.37285"/>
<rect x="576.39" y="666.496" width="108.455" height="108.455" stroke="white" stroke-width="1.37285"/>
<rect x="684.845" y="666.496" width="108.455" height="108.455" stroke="white" stroke-width="1.37285"/>
<rect x="793.3" y="666.496" width="108.455" height="108.455" stroke="white" stroke-width="1.37285"/>
<rect x="901.756" y="666.496" width="108.455" height="108.455" stroke="white" stroke-width="1.37285"/>
<rect x="1010.21" y="666.496" width="108.455" height="108.455" stroke="white" stroke-width="1.37285"/>
</g>
</g>
<defs>
<filter id="filter0_f_84_655" x="266.056" y="6.89673" width="946.209" height="946.209" filterUnits="userSpaceOnUse" color-interpolation-filters="sRGB">
<feFlood flood-opacity="0" result="BackgroundImageFix"/>
<feBlend mode="normal" in="SourceGraphic" in2="BackgroundImageFix" result="shape"/>
<feGaussianBlur stdDeviation="137.285" result="effect1_foregroundBlur_84_655"/>
</filter>
<radialGradient id="paint0_radial_84_655" cx="0" cy="0" r="1" gradientUnits="userSpaceOnUse" gradientTransform="translate(740 421.5) rotate(90) scale(519.615 991.151)">
<stop stop-color="#D9D9D9" stop-opacity="0.2"/>
<stop offset="0.802083" stop-color="#D9D9D9" stop-opacity="0"/>
</radialGradient>
</defs>
</svg>
