<svg width="646" height="296" viewBox="0 0 646 296" fill="none" xmlns="http://www.w3.org/2000/svg">
<g opacity="0.1">
<mask id="mask0_84_811" style="mask-type:alpha" maskUnits="userSpaceOnUse" x="-144" y="-577" width="748" height="858">
<path d="M603.125 -409.507C430.89 -463.895 84.3347 -573.533 75.9921 -576.982L-143.111 112.651L384.023 280.126L603.125 -409.507Z" fill="url(#paint0_linear_84_811)"/>
</mask>
<g mask="url(#mask0_84_811)">
<path d="M11.1488 -276.75C-4.84948 -127.168 56.4503 -43.4072 115.023 -24.7983C173.595 -6.18929 230.736 -69.2202 260.441 -162.717C275.161 -209.049 311.465 -163.452 299.786 -227.765C287.897 -293.234 195.01 -319.65 165.463 -329.038C106.891 -347.646 40.8534 -370.246 11.1488 -276.75Z" fill="#FFF9C7"/>
<g filter="url(#filter1_f_84_811)">
<path d="M14.6555 -263.755C-1.47787 -132.106 41.4804 16.7914 110.032 38.5708C178.583 60.3502 267.763 -15.4887 303.388 -127.619C321.042 -183.185 390.747 -143.684 377.584 -220.547C364.185 -298.79 265.834 -313.214 231.253 -324.2C162.702 -345.98 30.7888 -395.404 14.6555 -263.755Z" fill="#FFF9C7"/>
</g>
<g filter="url(#filter2_f_84_811)">
<path d="M20.1567 -164.455C32.7254 37.5995 37.1455 41.2885 104.169 62.5824C171.192 83.8763 273.529 39.2092 311.888 -81.5258C330.897 -141.356 323.578 -159.825 312.785 -241.512C301.799 -324.667 186.942 -339.073 153.132 -349.815C86.1092 -371.108 12.8677 -281.63 20.1567 -164.455Z" fill="#FFF9C7"/>
</g>
<g filter="url(#filter3_f_84_811)">
<path d="M41.8681 -160.558C2.228 -35.7892 58.438 100.323 126.989 122.103C195.541 143.882 290.361 102.234 330.001 -22.5344C349.644 -84.3632 385.495 -188.324 374.696 -272.628C363.703 -358.446 199.482 -297.461 164.901 -308.448C96.3495 -330.227 81.5081 -285.326 41.8681 -160.558Z" fill="#FFF9C7"/>
</g>
<g filter="url(#filter4_f_84_811)">
<path d="M60.7849 -257.864C26.0999 -148.692 86.5756 -26.0055 155.127 -4.2261C223.678 17.5533 315.909 -15.9456 350.594 -125.118C367.783 -179.218 374.148 -136.064 360.431 -211.185C346.469 -287.656 248.246 -302.483 213.666 -313.469C145.114 -335.249 95.47 -367.036 60.7849 -257.864Z" fill="#FFF9C7"/>
</g>
</g>
<g filter="url(#filter5_f_84_811)">
<ellipse cx="141.082" cy="214.508" rx="141.082" ry="214.508" transform="matrix(0.998071 -0.0620851 -0.0620851 -0.998071 87.5635 87.3171)" fill="#F7B100"/>
</g>
<mask id="mask1_84_811" style="mask-type:alpha" maskUnits="userSpaceOnUse" x="69" y="-471" width="422" height="753">
<path d="M69.2019 -470.127L466.403 -369.781L490.213 4.53154L472.875 131.293L268.317 281.013L96.276 226.988L72.25 -159.251L69.2019 -470.127Z" fill="url(#paint1_linear_84_811)"/>
</mask>
<g mask="url(#mask1_84_811)">
</g>
<mask id="mask2_84_811" style="mask-type:alpha" maskUnits="userSpaceOnUse" x="48" y="-432" width="465" height="698">
<path d="M89.7139 265.101C271.574 253.493 503.565 238.65 512.667 238.791L471.001 -431.023L48.048 -404.713L89.7139 265.101Z" fill="url(#paint2_linear_84_811)"/>
</mask>
<g mask="url(#mask2_84_811)">
<path d="M437.344 -39.1089C432.645 -114.655 363.555 -174.12 305.158 -170.488C246.76 -166.855 172.026 -131.507 177.068 -50.452C179.566 -10.2855 143.563 40.9125 175.612 86.8247C208.237 133.562 287.197 117.561 316.656 115.729C375.054 112.096 442.043 36.4374 437.344 -39.1089Z" fill="#F7B100"/>
<g filter="url(#filter6_f_84_811)">
<path d="M432.399 -37.8915C427.359 -118.913 367.761 -173.415 317.565 -170.293C267.368 -167.17 203.395 -132.504 208.435 -51.4821C210.933 -11.332 179.105 39.5863 207.069 85.7331C235.535 132.709 303.311 117.409 328.632 115.834C378.829 112.711 437.439 43.1301 432.399 -37.8915Z" fill="#F7B100"/>
</g>
<g filter="url(#filter7_f_84_811)">
<path d="M432.245 -40.3461C426.597 -131.155 353.524 -191.851 291.638 -188.002C229.751 -184.152 150.668 -144.838 156.317 -54.0291C159.116 -9.02859 113.771 48.6425 147.915 100.19C182.672 152.663 271.542 134.712 302.761 132.77C364.647 128.92 437.894 50.4634 432.245 -40.3461Z" fill="#F7B100"/>
</g>
<g filter="url(#filter8_f_84_811)">
<path d="M424.264 -50.3703C402.11 -161.543 316.066 -249.419 243.636 -244.914C171.206 -240.408 96.445 -178.632 103.22 -69.7244C106.577 -15.7552 31.9517 58.5334 72.0088 120.41C112.786 183.397 210.648 162.411 247.185 160.138C319.615 155.632 449.929 78.4168 424.264 -50.3703Z" fill="#F7B100"/>
</g>
<g filter="url(#filter9_f_84_811)">
<path d="M392.602 -86.3215C385.307 -203.587 285.708 -298.734 214.893 -294.329C144.078 -289.924 71.3338 -223.89 78.6283 -106.625C82.2431 -48.5141 59.6063 23.7241 99.1655 90.5708C139.435 158.618 235.025 136.63 270.747 134.408C341.563 130.002 399.896 30.9437 392.602 -86.3215Z" fill="#F7B100"/>
</g>
<g filter="url(#filter10_f_84_811)">
<path d="M361.496 -130.204C353.958 -251.387 252.021 -349.775 179.591 -345.269C107.161 -340.764 32.7991 -272.574 40.3373 -151.391C44.0728 -91.3392 20.9665 -16.7055 61.4732 52.3977C102.708 122.742 200.466 100.083 237.003 97.8098C309.433 93.3043 369.034 -9.02134 361.496 -130.204Z" fill="#F7B100"/>
</g>
<g filter="url(#filter11_f_84_811)">
<path d="M378.684 -39.7746C372.088 -145.81 270.962 -231.157 198.532 -226.651C126.102 -222.146 51.2481 -161.871 57.844 -55.8359C61.1126 -3.29041 45.8146 61.7081 85.7666 121.893C126.436 183.159 224.323 162.564 260.86 160.291C333.29 155.785 385.28 66.2604 378.684 -39.7746Z" fill="#F7B100"/>
</g>
</g>
<g filter="url(#filter12_f_84_811)">
<path d="M141.435 51.5951C164.156 59.1003 215.879 43.292 270.226 22.5988L341.982 18.1353C404.403 14.2524 381.309 -83.989 340.003 -164.31C298.698 -244.63 300.578 -242.649 240.038 -236.784C179.498 -230.92 207.33 -273.047 177.99 -321.061C148.65 -369.075 202.162 -268.113 158.971 -209.292C115.779 -150.471 104.348 -186.899 148.149 -104.11C191.95 -21.3217 171.312 -23.542 149.308 -19.5501C127.305 -15.5583 125.741 -40.6428 105.485 -36.7597C85.23 -32.8766 95.2466 -22.4826 108.476 11.3194C121.706 45.1214 118.715 44.0899 141.435 51.5951Z" fill="#FF6A00"/>
</g>
<mask id="mask3_84_811" style="mask-type:alpha" maskUnits="userSpaceOnUse" x="-121" y="-260" width="647" height="446">
<path d="M525.439 -194.319L389.183 185.843L82.408 160.326L-19.7106 126.513L-120.383 -95.7657L-52.6633 -259.039L268.853 -232.118L525.439 -194.319Z" fill="url(#paint3_linear_84_811)"/>
</mask>
<g mask="url(#mask3_84_811)">
<mask id="mask4_84_811" style="mask-type:alpha" maskUnits="userSpaceOnUse" x="-115" y="-254" width="608" height="435">
<path d="M-82.1439 -253.79C-97.1048 -72.1751 -113.359 126.059 -114.702 135.054L459.621 180.698L492.179 -208.146L-82.1439 -253.79Z" fill="url(#paint4_linear_84_811)"/>
</mask>
<g mask="url(#mask4_84_811)">
<path d="M120.613 113.65C183.5 118.915 241.819 58.306 246.701 -0.000493884C251.583 -58.307 232.533 -136.955 165.061 -142.605C131.625 -145.404 94.2915 -187.78 52.1358 -162.071C9.22283 -135.9 11.7594 -55.607 9.2966 -26.1942C4.41456 32.1123 57.7263 108.384 120.613 113.65Z" fill="#F7B100"/>
<g filter="url(#filter13_f_84_811)">
<path d="M120.278 108.593C187.723 114.24 240.219 67.7896 244.009 22.5223C247.799 -22.7449 227.327 -84.2807 159.882 -89.9279C126.46 -92.7264 88.5117 -127.561 46.9159 -108.344C4.57284 -88.7816 8.59468 -26.2731 6.68268 -3.43795C2.89242 41.8293 52.8332 102.946 120.278 108.593Z" fill="#F7B100"/>
</g>
<g filter="url(#filter14_f_84_811)">
<path d="M122.319 108.764C197.912 115.093 257.232 57.2761 261.912 1.38067C266.592 -54.5147 244.214 -130.255 168.621 -136.585C131.161 -139.721 89.3646 -187.555 42.5287 -163.447C-5.14864 -138.905 -1.62602 -57.0806 -3.98693 -28.8842C-8.66709 27.0112 46.727 102.434 122.319 108.764Z" fill="#F7B100"/>
</g>
<g filter="url(#filter15_f_84_811)">
<path d="M132.602 91.2389C227.201 83.8969 311.218 10.2284 317.273 -62.0885C323.328 -134.405 282.505 -216.55 191.847 -224.141C146.921 -227.903 95.7681 -311.556 39.3775 -280.013C-18.0261 -247.903 -23.7023 -115.372 -26.7569 -78.8916C-32.812 -6.57466 23.0151 99.7442 132.602 91.2389Z" fill="#F7B100"/>
</g>
<g filter="url(#filter16_f_84_811)">
<path d="M158.583 74.9578C256.198 83.1312 355.007 -2.42212 360.928 -73.1269C366.848 -143.832 322.243 -224.538 224.628 -232.711C176.255 -236.762 119.78 -268.663 59.3612 -238.266C-2.14355 -207.322 -42.9473 -63.105 -45.9337 -27.4379C-51.8539 43.2669 60.9681 66.7845 158.583 74.9578Z" fill="#F7B100"/>
</g>
<g filter="url(#filter17_f_84_811)">
<path d="M205.91 50.5004C306.786 58.9468 401.609 -29.0797 407.664 -101.397C413.719 -173.714 367.556 -256.305 266.68 -264.752C216.691 -268.937 133.86 -177.352 71.4531 -146.313C7.92549 -114.716 13.4143 -14.9335 10.3598 21.5469C4.30461 93.8639 105.034 42.0539 205.91 50.5004Z" fill="#F7B100"/>
</g>
<g filter="url(#filter18_f_84_811)">
<path d="M129.074 55.6467C217.341 63.0373 301.308 -25.8981 307.363 -98.215C313.418 -170.532 273.844 -252.572 185.577 -259.963C141.837 -263.625 90.3388 -287.309 35.3562 -255.648C-20.6142 -223.418 -16.8438 -123.779 -19.8983 -87.2989C-25.9535 -14.982 40.8074 48.2561 129.074 55.6467Z" fill="#F7B100"/>
</g>
</g>
</g>
<g opacity="0.6" filter="url(#filter19_f_84_811)">
<path d="M324.397 -126.432C318.612 -219.424 228.058 -321.524 180.758 -318.582C133.459 -315.64 21.4808 -378.034 130.269 -153.99C136.053 -60.9985 51.143 54.9306 201.706 18.171C249.006 15.2288 190.917 -78.4953 324.397 -126.432Z" fill="#F4FADB"/>
</g>
</g>
<defs>
<filter id="filter1_f_84_811" x="-3.91503" y="-366.765" width="398.319" height="424.247" filterUnits="userSpaceOnUse" color-interpolation-filters="sRGB">
<feFlood flood-opacity="0" result="BackgroundImageFix"/>
<feBlend mode="normal" in="SourceGraphic" in2="BackgroundImageFix" result="shape"/>
<feGaussianBlur stdDeviation="7.58813" result="effect1_foregroundBlur_84_811"/>
</filter>
<filter id="filter2_f_84_811" x="-21.3223" y="-393.939" width="385.937" height="502.611" filterUnits="userSpaceOnUse" color-interpolation-filters="sRGB">
<feFlood flood-opacity="0" result="BackgroundImageFix"/>
<feBlend mode="normal" in="SourceGraphic" in2="BackgroundImageFix" result="shape"/>
<feGaussianBlur stdDeviation="20.4879" result="effect1_foregroundBlur_84_811"/>
</filter>
<filter id="filter3_f_84_811" x="-72.9693" y="-420.977" width="551.333" height="650.273" filterUnits="userSpaceOnUse" color-interpolation-filters="sRGB">
<feFlood flood-opacity="0" result="BackgroundImageFix"/>
<feBlend mode="normal" in="SourceGraphic" in2="BackgroundImageFix" result="shape"/>
<feGaussianBlur stdDeviation="50.8405" result="effect1_foregroundBlur_84_811"/>
</filter>
<filter id="filter4_f_84_811" x="3.64989" y="-382.241" width="411.275" height="431.349" filterUnits="userSpaceOnUse" color-interpolation-filters="sRGB">
<feFlood flood-opacity="0" result="BackgroundImageFix"/>
<feBlend mode="normal" in="SourceGraphic" in2="BackgroundImageFix" result="shape"/>
<feGaussianBlur stdDeviation="23.5232" result="effect1_foregroundBlur_84_811"/>
</filter>
<filter id="filter5_f_84_811" x="-2.27362" y="-425.694" width="434.659" height="580.316" filterUnits="userSpaceOnUse" color-interpolation-filters="sRGB">
<feFlood flood-opacity="0" result="BackgroundImageFix"/>
<feBlend mode="normal" in="SourceGraphic" in2="BackgroundImageFix" result="shape"/>
<feGaussianBlur stdDeviation="37.9406" result="effect1_foregroundBlur_84_811"/>
</filter>
<filter id="filter6_f_84_811" x="192.461" y="-173.455" width="243.277" height="295.945" filterUnits="userSpaceOnUse" color-interpolation-filters="sRGB">
<feFlood flood-opacity="0" result="BackgroundImageFix"/>
<feBlend mode="normal" in="SourceGraphic" in2="BackgroundImageFix" result="shape"/>
<feGaussianBlur stdDeviation="1.51763" result="effect1_foregroundBlur_84_811"/>
</filter>
<filter id="filter7_f_84_811" x="124.502" y="-198.798" width="318.674" height="346.708" filterUnits="userSpaceOnUse" color-interpolation-filters="sRGB">
<feFlood flood-opacity="0" result="BackgroundImageFix"/>
<feBlend mode="normal" in="SourceGraphic" in2="BackgroundImageFix" result="shape"/>
<feGaussianBlur stdDeviation="5.31169" result="effect1_foregroundBlur_84_811"/>
</filter>
<filter id="filter8_f_84_811" x="44.9832" y="-260.256" width="397.755" height="440.729" filterUnits="userSpaceOnUse" color-interpolation-filters="sRGB">
<feFlood flood-opacity="0" result="BackgroundImageFix"/>
<feBlend mode="normal" in="SourceGraphic" in2="BackgroundImageFix" result="shape"/>
<feGaussianBlur stdDeviation="7.58813" result="effect1_foregroundBlur_84_811"/>
</filter>
<filter id="filter9_f_84_811" x="34.4306" y="-335.452" width="399.764" height="515.97" filterUnits="userSpaceOnUse" color-interpolation-filters="sRGB">
<feFlood flood-opacity="0" result="BackgroundImageFix"/>
<feBlend mode="normal" in="SourceGraphic" in2="BackgroundImageFix" result="shape"/>
<feGaussianBlur stdDeviation="20.4879" result="effect1_foregroundBlur_84_811"/>
</filter>
<filter id="filter10_f_84_811" x="-64.5745" y="-447.099" width="528.396" height="651.852" filterUnits="userSpaceOnUse" color-interpolation-filters="sRGB">
<feFlood flood-opacity="0" result="BackgroundImageFix"/>
<feBlend mode="normal" in="SourceGraphic" in2="BackgroundImageFix" result="shape"/>
<feGaussianBlur stdDeviation="50.8405" result="effect1_foregroundBlur_84_811"/>
</filter>
<filter id="filter11_f_84_811" x="10.3913" y="-273.868" width="415.903" height="486.343" filterUnits="userSpaceOnUse" color-interpolation-filters="sRGB">
<feFlood flood-opacity="0" result="BackgroundImageFix"/>
<feBlend mode="normal" in="SourceGraphic" in2="BackgroundImageFix" result="shape"/>
<feGaussianBlur stdDeviation="23.5232" result="effect1_foregroundBlur_84_811"/>
</filter>
<filter id="filter12_f_84_811" x="42.3731" y="-385.224" width="389.67" height="490.316" filterUnits="userSpaceOnUse" color-interpolation-filters="sRGB">
<feFlood flood-opacity="0" result="BackgroundImageFix"/>
<feBlend mode="normal" in="SourceGraphic" in2="BackgroundImageFix" result="shape"/>
<feGaussianBlur stdDeviation="25.7996" result="effect1_foregroundBlur_84_811"/>
</filter>
<filter id="filter13_f_84_811" x="3.44522" y="-117.134" width="244.033" height="229.23" filterUnits="userSpaceOnUse" color-interpolation-filters="sRGB">
<feFlood flood-opacity="0" result="BackgroundImageFix"/>
<feBlend mode="normal" in="SourceGraphic" in2="BackgroundImageFix" result="shape"/>
<feGaussianBlur stdDeviation="1.51763" result="effect1_foregroundBlur_84_811"/>
</filter>
<filter id="filter14_f_84_811" x="-14.8861" y="-180.835" width="288.013" height="300.699" filterUnits="userSpaceOnUse" color-interpolation-filters="sRGB">
<feFlood flood-opacity="0" result="BackgroundImageFix"/>
<feBlend mode="normal" in="SourceGraphic" in2="BackgroundImageFix" result="shape"/>
<feGaussianBlur stdDeviation="5.31169" result="effect1_foregroundBlur_84_811"/>
</filter>
<filter id="filter15_f_84_811" x="-42.3784" y="-302.283" width="375.414" height="409.178" filterUnits="userSpaceOnUse" color-interpolation-filters="sRGB">
<feFlood flood-opacity="0" result="BackgroundImageFix"/>
<feBlend mode="normal" in="SourceGraphic" in2="BackgroundImageFix" result="shape"/>
<feGaussianBlur stdDeviation="7.58813" result="effect1_foregroundBlur_84_811"/>
</filter>
<filter id="filter16_f_84_811" x="-87.1331" y="-292.24" width="489.556" height="408.718" filterUnits="userSpaceOnUse" color-interpolation-filters="sRGB">
<feFlood flood-opacity="0" result="BackgroundImageFix"/>
<feBlend mode="normal" in="SourceGraphic" in2="BackgroundImageFix" result="shape"/>
<feGaussianBlur stdDeviation="20.4879" result="effect1_foregroundBlur_84_811"/>
</filter>
<filter id="filter17_f_84_811" x="-91.5811" y="-366.572" width="601.452" height="528.897" filterUnits="userSpaceOnUse" color-interpolation-filters="sRGB">
<feFlood flood-opacity="0" result="BackgroundImageFix"/>
<feBlend mode="normal" in="SourceGraphic" in2="BackgroundImageFix" result="shape"/>
<feGaussianBlur stdDeviation="50.8405" result="effect1_foregroundBlur_84_811"/>
</filter>
<filter id="filter18_f_84_811" x="-67.3262" y="-318.954" width="422.337" height="422.079" filterUnits="userSpaceOnUse" color-interpolation-filters="sRGB">
<feFlood flood-opacity="0" result="BackgroundImageFix"/>
<feBlend mode="normal" in="SourceGraphic" in2="BackgroundImageFix" result="shape"/>
<feGaussianBlur stdDeviation="23.5232" result="effect1_foregroundBlur_84_811"/>
</filter>
<filter id="filter19_f_84_811" x="20.4963" y="-388.163" width="367.641" height="477.055" filterUnits="userSpaceOnUse" color-interpolation-filters="sRGB">
<feFlood flood-opacity="0" result="BackgroundImageFix"/>
<feBlend mode="normal" in="SourceGraphic" in2="BackgroundImageFix" result="shape"/>
<feGaussianBlur stdDeviation="31.8701" result="effect1_foregroundBlur_84_811"/>
</filter>
<linearGradient id="paint0_linear_84_811" x1="16.0918" y1="-278.57" x2="315.537" y2="11.7791" gradientUnits="userSpaceOnUse">
<stop stop-color="#C4C4C4"/>
<stop offset="1" stop-color="#C4C4C4" stop-opacity="0"/>
</linearGradient>
<linearGradient id="paint1_linear_84_811" x1="283.784" y1="-27.8735" x2="159.109" y2="145.06" gradientUnits="userSpaceOnUse">
<stop stop-color="#C4C4C4"/>
<stop offset="1" stop-color="#C4C4C4" stop-opacity="0"/>
</linearGradient>
<linearGradient id="paint2_linear_84_811" x1="428.244" y1="-37.0928" x2="128.072" y2="-27.9982" gradientUnits="userSpaceOnUse">
<stop stop-color="#C4C4C4"/>
<stop offset="1" stop-color="#C4C4C4" stop-opacity="0"/>
</linearGradient>
<linearGradient id="paint3_linear_84_811" x1="229.991" y1="28.5361" x2="25.3186" y2="-5.65059" gradientUnits="userSpaceOnUse">
<stop stop-color="#C4C4C4"/>
<stop offset="0.943414" stop-color="#C4C4C4" stop-opacity="0"/>
</linearGradient>
<linearGradient id="paint4_linear_84_811" x1="125.43" y1="45.5509" x2="120.368" y2="-194.974" gradientUnits="userSpaceOnUse">
<stop stop-color="#C4C4C4"/>
<stop offset="1" stop-color="#C4C4C4" stop-opacity="0"/>
</linearGradient>
</defs>
</svg>
