<svg width="1045" height="681" viewBox="0 0 1045 681" fill="none" xmlns="http://www.w3.org/2000/svg">
<g clip-path="url(#clip0_84_326)">
<g opacity="0.4">
<g filter="url(#filter0_f_84_326)">
<circle cx="470.73" cy="340.501" r="140.835" transform="rotate(-90 470.73 340.501)" fill="#FFD61F" fill-opacity="0.38"/>
</g>
<mask id="mask0_84_326" style="mask-type:alpha" maskUnits="userSpaceOnUse" x="-203" y="0" width="1142" height="681">
<rect x="-202.581" width="1140.94" height="681" fill="url(#paint0_radial_84_326)"/>
</mask>
<g mask="url(#mask0_84_326)">
<rect x="47.5221" y="11.1827" width="76.9355" height="76.9355" stroke="black" stroke-width="0.973867"/>
<rect x="124.458" y="11.1827" width="76.9355" height="76.9355" stroke="black" stroke-width="0.973867"/>
<rect x="201.393" y="11.1827" width="76.9355" height="76.9355" stroke="black" stroke-width="0.973867"/>
<rect x="278.328" y="11.1827" width="76.9355" height="76.9355" stroke="black" stroke-width="0.973867"/>
<rect x="355.264" y="11.1827" width="76.9355" height="76.9355" stroke="black" stroke-width="0.973867"/>
<rect x="432.2" y="11.1827" width="76.9355" height="76.9355" stroke="black" stroke-width="0.973867"/>
<rect x="509.135" y="11.1827" width="76.9355" height="76.9355" fill="#978B47" stroke="black" stroke-width="0.973867"/>
<rect x="586.07" y="11.1827" width="76.9355" height="76.9355" stroke="black" stroke-width="0.973867"/>
<rect x="663.006" y="11.1827" width="76.9355" height="76.9355" stroke="black" stroke-width="0.973867"/>
<rect x="47.5221" y="88.1183" width="76.9355" height="76.9355" stroke="black" stroke-width="0.973867"/>
<rect x="124.458" y="88.1185" width="76.9355" height="76.9355" stroke="black" stroke-width="0.973867"/>
<rect x="201.393" y="88.1185" width="76.9355" height="76.9355" stroke="black" stroke-width="0.973867"/>
<rect x="278.328" y="88.1185" width="76.9355" height="76.9355" stroke="black" stroke-width="0.973867"/>
<rect x="355.264" y="88.1185" width="76.9355" height="76.9355" stroke="black" stroke-width="0.973867"/>
<rect x="432.199" y="88.1183" width="76.9355" height="76.9355" stroke="black" stroke-width="0.973867"/>
<rect x="509.135" y="88.1185" width="76.9355" height="76.9355" stroke="black" stroke-width="0.973867"/>
<rect x="586.07" y="88.1185" width="76.9355" height="76.9355" stroke="black" stroke-width="0.973867"/>
<rect x="663.006" y="88.1185" width="76.9355" height="76.9355" stroke="black" stroke-width="0.973867"/>
<rect x="47.5221" y="165.054" width="76.9355" height="76.9355" stroke="black" stroke-width="0.973867"/>
<rect x="124.458" y="165.053" width="76.9355" height="76.9355" stroke="black" stroke-width="0.973867"/>
<rect x="201.393" y="165.053" width="76.9355" height="76.9355" stroke="black" stroke-width="0.973867"/>
<rect x="278.328" y="165.053" width="76.9355" height="76.9355" stroke="black" stroke-width="0.973867"/>
<rect x="355.264" y="165.053" width="76.9355" height="76.9355" fill="#978B47" stroke="black" stroke-width="0.973867"/>
<rect x="432.199" y="165.054" width="76.9355" height="76.9355" stroke="black" stroke-width="0.973867"/>
<rect x="509.135" y="165.053" width="76.9355" height="76.9355" fill="#978B47" stroke="black" stroke-width="0.973867"/>
<rect x="586.07" y="165.053" width="76.9355" height="76.9355" stroke="black" stroke-width="0.973867"/>
<rect x="663.006" y="165.053" width="76.9355" height="76.9355" stroke="black" stroke-width="0.973867"/>
<rect x="47.5221" y="241.989" width="76.9355" height="76.9355" stroke="black" stroke-width="0.973867"/>
<rect x="124.458" y="241.989" width="76.9355" height="76.9355" stroke="black" stroke-width="0.973867"/>
<rect x="201.393" y="241.989" width="76.9355" height="76.9355" stroke="black" stroke-width="0.973867"/>
<rect x="278.328" y="241.989" width="76.9355" height="76.9355" stroke="black" stroke-width="0.973867"/>
<rect x="355.264" y="241.989" width="76.9355" height="76.9355" stroke="black" stroke-width="0.973867"/>
<rect x="432.2" y="241.989" width="76.9355" height="76.9355" stroke="black" stroke-width="0.973867"/>
<rect x="509.135" y="241.989" width="76.9355" height="76.9355" stroke="black" stroke-width="0.973867"/>
<rect x="586.07" y="241.989" width="76.9355" height="76.9355" stroke="black" stroke-width="0.973867"/>
<rect x="663.006" y="241.989" width="76.9355" height="76.9355" stroke="black" stroke-width="0.973867"/>
<rect x="47.5221" y="318.925" width="76.9355" height="76.9355" stroke="black" stroke-width="0.973867"/>
<rect x="124.458" y="318.925" width="76.9355" height="76.9355" stroke="black" stroke-width="0.973867"/>
<rect x="201.393" y="318.925" width="76.9355" height="76.9355" stroke="black" stroke-width="0.973867"/>
<rect x="278.329" y="318.925" width="76.9355" height="76.9355" fill="#978B47" stroke="black" stroke-width="0.973867"/>
<rect x="355.264" y="318.925" width="76.9355" height="76.9355" stroke="black" stroke-width="0.973867"/>
<rect x="432.2" y="318.925" width="76.9355" height="76.9355" stroke="black" stroke-width="0.973867"/>
<rect x="509.135" y="318.925" width="76.9355" height="76.9355" stroke="black" stroke-width="0.973867"/>
<rect x="586.07" y="318.925" width="76.9355" height="76.9355" stroke="black" stroke-width="0.973867"/>
<rect x="663.006" y="318.925" width="76.9355" height="76.9355" stroke="black" stroke-width="0.973867"/>
<rect x="47.5221" y="395.86" width="76.9355" height="76.9355" stroke="black" stroke-width="0.973867"/>
<rect x="124.458" y="395.86" width="76.9355" height="76.9355" stroke="black" stroke-width="0.973867"/>
<rect x="201.393" y="395.86" width="76.9355" height="76.9355" stroke="black" stroke-width="0.973867"/>
<rect x="278.328" y="395.86" width="76.9355" height="76.9355" stroke="black" stroke-width="0.973867"/>
<rect x="355.264" y="395.86" width="76.9355" height="76.9355" stroke="black" stroke-width="0.973867"/>
<rect x="432.2" y="395.86" width="76.9355" height="76.9355" stroke="black" stroke-width="0.973867"/>
<rect x="509.135" y="395.86" width="76.9355" height="76.9355" stroke="black" stroke-width="0.973867"/>
<rect x="586.07" y="395.86" width="76.9355" height="76.9355" stroke="black" stroke-width="0.973867"/>
<rect x="663.006" y="395.86" width="76.9355" height="76.9355" stroke="black" stroke-width="0.973867"/>
<rect x="47.5221" y="472.796" width="76.9355" height="76.9355" stroke="black" stroke-width="0.973867"/>
<rect x="124.458" y="472.796" width="76.9355" height="76.9355" stroke="black" stroke-width="0.973867"/>
<rect x="201.393" y="472.796" width="76.9355" height="76.9355" stroke="black" stroke-width="0.973867"/>
<rect x="278.328" y="472.796" width="76.9355" height="76.9355" stroke="black" stroke-width="0.973867"/>
<rect x="355.264" y="472.796" width="76.9355" height="76.9355" stroke="black" stroke-width="0.973867"/>
<rect x="432.199" y="472.796" width="76.9355" height="76.9355" stroke="black" stroke-width="0.973867"/>
<rect x="509.135" y="472.796" width="76.9355" height="76.9355" stroke="black" stroke-width="0.973867"/>
<rect x="586.07" y="472.796" width="76.9355" height="76.9355" stroke="black" stroke-width="0.973867"/>
<rect x="663.006" y="472.796" width="76.9355" height="76.9355" stroke="black" stroke-width="0.973867"/>
</g>
</g>
</g>
<defs>
<filter id="filter0_f_84_326" x="135.121" y="4.89247" width="671.217" height="671.217" filterUnits="userSpaceOnUse" color-interpolation-filters="sRGB">
<feFlood flood-opacity="0" result="BackgroundImageFix"/>
<feBlend mode="normal" in="SourceGraphic" in2="BackgroundImageFix" result="shape"/>
<feGaussianBlur stdDeviation="97.3867" result="effect1_foregroundBlur_84_326"/>
</filter>
<radialGradient id="paint0_radial_84_326" cx="0" cy="0" r="1" gradientUnits="userSpaceOnUse" gradientTransform="translate(367.89 340.5) rotate(90) scale(419.76 703.262)">
<stop stop-color="#D9D9D9" stop-opacity="0.2"/>
<stop offset="0.802083" stop-color="#D9D9D9" stop-opacity="0"/>
</radialGradient>
<clipPath id="clip0_84_326">
<rect width="1135" height="681" fill="white" transform="translate(-90.5)"/>
</clipPath>
</defs>
</svg>
