<svg width="19" height="23" viewBox="0 0 19 23" fill="none" xmlns="http://www.w3.org/2000/svg">
<path d="M15.6189 21.3573C14.4076 22.5315 13.0852 22.3461 11.8121 21.7899C10.4649 21.2213 9.22897 21.1966 7.80762 21.7899C6.02785 22.5562 5.08852 22.3337 4.0256 21.3573C-2.00586 15.1405 -1.11597 5.67303 5.73122 5.32697C7.39976 5.41348 8.56156 6.24157 9.53796 6.31573C10.9964 6.0191 12.393 5.16629 13.9503 5.27753C15.8166 5.42584 17.2256 6.16742 18.1526 7.50225C14.2964 9.81348 15.211 14.8933 18.7458 16.3146C18.0413 18.1685 17.1267 20.0101 15.6065 21.3697L15.6189 21.3573ZM9.41437 5.25281C9.22897 2.49663 11.4661 0.222472 14.0368 0C14.3953 3.18876 11.1447 5.5618 9.41437 5.25281Z" fill="#FEFEFE"/>
</svg>
