<svg width="428" height="155" viewBox="0 0 428 155" fill="none" xmlns="http://www.w3.org/2000/svg">
<mask id="mask0_84_504" style="mask-type:alpha" maskUnits="userSpaceOnUse" x="80" y="0" width="370" height="339">
<path fill-rule="evenodd" clip-rule="evenodd" d="M242.871 165.778L242.712 165.599L242.8 166.964C242.804 167.185 242.859 167.393 242.929 167.652C243.467 169.662 245.556 170.488 247.474 171.246L247.507 171.259C249.551 172.044 251.411 172.768 251.925 174.686C251.967 174.842 252.022 175.049 252.012 175.218C252.016 175.44 252.085 175.699 252.141 175.906C252.516 177.306 253.627 178.342 254.986 178.644C255.522 178.778 256.148 178.833 256.708 178.85C260.845 178.741 265.882 175.558 266.243 171.516C266.356 170.486 266.234 169.408 265.956 168.371C265.484 166.608 264.517 164.867 263.126 163.407C260.502 160.665 256.805 159.1 253.044 159.163C250.389 159.208 246.505 160.471 244.409 162.81C243.577 163.644 243.074 164.668 242.871 165.778ZM261.576 164.878C262.662 166.031 263.48 167.423 263.897 168.978C264.105 169.756 264.158 170.575 264.093 171.37C263.865 174.043 259.744 176.703 256.698 176.741C255.319 176.777 254.478 176.336 254.214 175.351C254.187 175.247 254.159 175.143 254.169 174.974C254.138 174.649 254.068 174.39 253.985 174.079C253.207 171.176 250.468 170.076 248.24 169.229L248.222 169.221C246.618 168.601 245.265 168.077 244.988 167.044L244.919 166.785C244.89 165.848 245.238 164.866 245.942 164.177C247.655 162.274 250.879 161.243 253.039 161.22C256.268 161.244 259.35 162.585 261.576 164.878Z" fill="url(#paint0_linear_84_504)"/>
<path fill-rule="evenodd" clip-rule="evenodd" d="M235.468 176.096C232.798 174.422 230.841 171.891 229.97 168.846C229.484 167.032 229.426 165.158 229.773 163.343L229.966 162.402C230.998 157.959 234 153.821 238.439 150.687C242.646 147.726 247.888 145.933 252.534 145.855C255.814 145.865 259.164 146.134 262.4 146.6C262.798 146.632 263.186 146.681 263.574 146.73C263.962 146.779 264.35 146.828 264.748 146.86C269.104 147.359 272.996 149.65 275.977 153.518C277.919 155.998 279.444 159.201 280.375 162.674C281.417 166.562 281.719 170.592 281.17 174.35C280.557 178.904 277.807 183.363 273.48 186.912C269.705 190.034 265.065 192 261.497 191.956C260.716 191.943 259.959 191.813 259.188 191.63C256.912 191.018 255.026 189.578 253.769 187.582C251.591 184.221 247.955 182.472 243.705 180.5C240.872 179.259 238.087 177.783 235.468 176.096ZM266.417 149.357C265.764 149.199 265.11 149.041 264.484 148.986C264.206 148.957 263.919 148.922 263.626 148.887C263.137 148.828 262.634 148.767 262.137 148.726C258.966 148.298 255.734 148.053 252.557 148.015C244.032 148.133 233.441 154.637 231.876 163.724C231.577 165.304 231.655 166.839 232.044 168.29C232.696 170.727 234.241 172.758 236.611 174.345C239.15 175.943 241.817 177.395 244.584 178.598C249.149 180.708 253.1 182.594 255.586 186.484C256.871 188.584 259.04 189.836 261.488 189.847C267.541 189.836 277.789 183.09 279.044 174.087C279.517 170.46 279.274 166.858 278.329 163.333L278.232 162.97C277.44 160.016 276.092 157.266 274.268 154.81C272.335 152.161 269.543 150.242 266.417 149.357Z" fill="url(#paint1_linear_84_504)"/>
<path fill-rule="evenodd" clip-rule="evenodd" d="M271.518 133.767C269.095 133.639 266.54 133.435 264.258 133.213C260.203 132.799 256.137 132.555 252.089 132.584C244.906 132.731 237.09 135.492 230.531 140.25C223.598 145.274 218.753 152.073 216.899 159.459L216.764 159.995C215.887 163.563 215.899 167.338 216.791 170.877C217.916 175.076 220.517 178.768 224.088 181.312C229.727 185.357 235.303 187.918 240.301 190.191L240.439 190.254C246.519 193.026 251.716 195.396 255.55 199.827C257.583 202.228 260.281 204.005 263.341 204.851C264.714 205.206 266.097 205.391 267.514 205.289C272.717 205.006 279.354 201.783 284.83 196.927C291.064 191.367 295.138 184.386 296.191 177.326C297.089 171.141 296.853 164.87 295.436 158.75C295.361 158.471 295.299 158.188 295.235 157.9C295.168 157.599 295.1 157.291 295.015 156.973C293.501 151.323 291.048 146.313 287.911 142.487C283.459 137.068 277.824 134.078 271.518 133.767ZM252.061 134.759C256.057 134.743 260.057 134.95 264.008 135.391C266.46 135.623 268.963 135.841 271.372 135.918C272.727 135.999 274.059 136.198 275.366 136.514C279.367 137.554 282.896 139.942 285.897 143.471L286.136 143.74C289.033 147.298 291.366 152.062 292.824 157.505C294.533 163.881 294.889 170.397 293.957 176.869C292.949 183.473 289.178 189.928 283.318 195.221C278.214 199.811 272.068 202.791 267.308 203.066C263.537 203.299 259.915 201.603 257.101 198.356C252.944 193.561 247.539 191.076 241.25 188.184L241.138 188.133C236.272 185.936 230.814 183.399 225.319 179.482C222.091 177.18 219.837 173.95 218.837 170.218C218.018 167.16 218.027 163.879 218.815 160.39C222.433 144.864 238.89 134.954 252.061 134.759Z" fill="url(#paint2_linear_84_504)"/>
<path fill-rule="evenodd" clip-rule="evenodd" d="M203.481 172.833C202.2 167.842 202.262 162.27 203.742 156.595C206.419 146.266 213.093 136.755 222.491 129.737C231.26 123.275 241.858 119.491 251.475 119.303C256.512 119.232 261.608 119.589 266.548 119.987C270.237 120.277 274.368 120.559 278.223 120.637C286.478 120.758 293.922 124.486 299.714 131.38C303.965 136.463 307.361 143.331 309.458 151.159C311.944 160.438 312.52 170.673 311.024 180.019C309.532 189.586 304.185 199.074 296.008 206.71C288.909 213.391 280.209 217.833 273.372 218.442C271.305 218.607 269.245 218.382 267.218 217.869C263.373 216.788 259.914 214.659 257.145 211.79C251.695 206.33 244.852 203.284 236.94 199.763L236.491 199.563C229.261 196.342 221.08 192.697 212.679 186.424C208.25 183.166 204.981 178.431 203.551 173.092L203.481 172.833ZM307.502 151.738C305.488 144.222 302.227 137.651 298.149 132.799L297.817 132.388C294.006 127.909 289.439 124.965 284.352 123.606C282.378 123.079 280.355 122.788 278.298 122.784C274.392 122.719 270.364 122.409 266.506 122.11C261.565 121.711 256.573 121.327 251.602 121.436C233.969 121.772 211.418 135.481 205.82 157.094C204.388 162.533 204.318 167.663 205.555 172.277C206.902 177.305 209.825 181.578 213.99 184.684C222.302 190.882 230.48 194.517 237.721 197.734L237.772 197.757L238.16 197.931C246.142 201.508 253.065 204.61 258.695 210.319C262.959 214.621 268.085 216.748 273.194 216.324C279.602 215.773 287.783 211.47 294.589 205.146C302.458 197.815 307.54 188.786 308.988 179.675C310.432 170.343 309.961 160.914 307.502 151.738Z" fill="url(#paint3_linear_84_504)"/>
<path fill-rule="evenodd" clip-rule="evenodd" d="M285.176 107.606C279.956 107.616 274.522 107.239 269.243 106.82C268.775 106.788 268.306 106.755 267.836 106.723C262.336 106.342 256.699 105.952 251.148 106.057C239.046 106.3 225.784 111.131 214.752 119.309C202.885 128.101 194.392 140.155 190.785 153.233C188.933 160.007 188.564 166.718 189.785 172.724L189.771 172.673L190.066 173.982L190.386 175.175C192.136 181.706 196.073 187.485 201.44 191.547C212.709 200.137 223.673 204.94 233.36 209.184L233.645 209.308C243.454 213.569 251.886 217.255 258.87 223.828C262.324 227.181 266.61 229.699 271.292 231C273.934 231.737 276.659 231.952 279.362 231.672C287.847 230.787 298.581 225.022 307.383 216.608C317.517 206.947 324.137 194.951 326.12 182.863C327.898 171.664 327.525 160.319 325.112 149.242C324.817 147.932 324.507 146.571 324.16 145.275C321.507 135.374 317.262 126.788 311.845 120.462C304.582 112.018 295.395 107.591 285.176 107.606ZM285.2 109.767C287.972 109.746 290.738 110.116 293.418 110.787C299.694 112.439 305.368 116.197 310.163 121.857C315.421 128.004 319.559 136.396 322.142 146.038C325.299 158.026 325.922 170.304 323.98 182.547C322.107 194.217 315.649 205.781 305.874 215.123C297.379 223.233 287.136 228.755 279.131 229.567C272.699 230.235 266.055 227.626 260.341 222.268C253.181 215.585 244.705 211.848 234.926 207.537L234.51 207.354C224.885 203.155 213.934 198.367 202.713 189.873C197.624 186.014 194.07 180.632 192.376 174.308C190.709 168.088 190.863 160.99 192.877 153.784C200.594 125.77 228.605 108.597 251.223 108.204C257.197 108.103 263.309 108.521 269.2 108.943C274.428 109.375 279.862 109.753 285.2 109.767Z" fill="url(#paint4_linear_84_504)"/>
<path fill-rule="evenodd" clip-rule="evenodd" d="M176.398 174.811C174.785 167.132 175.266 158.558 177.738 149.951C182.261 134.071 192.573 119.474 206.858 108.924C220.152 99.028 236.144 93.1874 250.731 92.8899C257.524 92.7633 264.374 93.2261 271.023 93.6754C271.355 93.6978 271.686 93.7202 272.017 93.7425C272.249 93.7582 272.481 93.774 272.714 93.7899C272.976 93.8077 273.239 93.8257 273.502 93.8436L273.509 93.8441C279.656 94.2639 285.939 94.6929 292.078 94.5896C298.221 94.4993 304.362 95.854 309.862 98.5473C315.258 101.268 319.929 105.017 323.834 109.638C330.38 117.273 335.54 127.613 338.749 139.588C339.193 141.247 339.638 142.905 339.992 144.644C342.864 158.264 343.24 172.109 341.075 185.801C338.666 200.447 330.708 214.913 318.63 226.65C308.192 236.836 295.41 243.873 285.275 245.033C281.936 245.427 278.586 245.158 275.291 244.263C270.152 242.918 265.053 240.061 260.52 235.998C252.061 228.406 242.053 224.1 230.481 219.121L230.373 219.075C218.191 213.838 204.37 207.874 190.087 196.867C183.73 192.014 179.111 185.141 177.055 177.469L176.93 177.002C176.854 176.717 176.794 176.441 176.734 176.166C176.674 175.89 176.614 175.615 176.537 175.329L176.398 174.811ZM338.973 185.419C341.361 170.279 340.572 155.1 336.651 140.261C333.47 128.39 328.484 118.281 322.218 111.071C316.43 104.399 309.756 100.02 302.329 98.0101C298.981 97.1291 295.538 96.7184 292.05 96.7641C285.896 96.8317 279.613 96.4188 273.461 96.0144L273.447 96.0134C272.903 95.9777 272.36 95.942 271.819 95.9068C271.511 95.8853 271.203 95.8637 270.895 95.8421C264.275 95.3783 257.456 94.9004 250.755 95.0505C223.504 95.574 189.503 116.519 179.858 150.605C177.252 159.748 176.972 168.657 179.069 176.484C181.097 184.053 185.385 190.515 191.412 195.179C205.536 206.006 219.174 211.908 231.224 217.069C243.025 222.129 253.201 226.514 261.963 234.334C269.126 240.748 277.326 243.773 285.031 242.876C303.505 240.703 333.729 217.271 338.973 185.419Z" fill="url(#paint5_linear_84_504)"/>
<path fill-rule="evenodd" clip-rule="evenodd" d="M164.781 146.589C167.648 136.764 172.142 127.616 178.161 119.391C189.754 103.562 205.603 91.5924 223.986 84.7222C232.42 81.5733 241.282 79.81 250.273 79.5676C258.355 79.4577 266.604 79.9698 274.528 80.5134L274.58 80.4996C282.569 81.0811 290.884 81.6312 298.886 81.4315C306.004 81.2467 313.189 82.766 319.581 85.8869C325.87 89.0355 331.32 93.4089 335.862 98.7479C343.574 107.626 349.597 119.736 353.361 133.784C353.903 135.805 354.406 137.893 354.858 139.994C358.213 156.04 358.658 172.422 356.054 188.621C353.153 205.788 343.885 222.828 329.901 236.575C324.01 242.376 317.403 247.369 310.221 251.46C303.54 255.14 296.954 257.515 291.199 258.224C287.158 258.696 283.131 258.386 279.233 257.319C273.31 255.739 267.581 252.607 262.166 247.947C252.18 239.428 240.609 234.484 227.225 228.766L226.687 228.537C212.175 222.333 195.787 215.328 178.744 202.018C171.464 196.412 166.175 188.496 163.8 179.631L163.634 179.009C163.411 178.18 163.203 177.402 163.033 176.559L162.918 175.923C161.151 166.841 161.775 156.728 164.781 146.589ZM274.382 82.6638C266.458 82.1202 258.313 81.5803 250.296 81.7282C218.452 82.3159 178.512 107.018 166.731 147.233C163.467 158.275 163.089 169.099 165.603 178.482C167.979 187.346 172.948 194.903 179.952 200.305C196.903 213.502 213.297 220.488 227.762 226.652L227.858 226.693C240.956 232.24 253.255 237.5 263.505 246.31C272.156 253.715 281.874 257.222 290.902 256.081C302.191 254.668 316.531 246.603 328.364 234.987C342.041 221.544 351.095 204.95 353.886 188.202C356.785 170.202 355.882 152.109 351.212 134.471C347.475 120.526 341.626 108.648 334.218 100.077L333.899 99.7182C327.329 92.2003 319.669 87.2523 311.17 84.9739C307.169 83.9347 303.034 83.4315 298.896 83.5402C290.841 83.7538 282.475 83.2176 274.434 82.6499L274.382 82.6638Z" fill="url(#paint6_linear_84_504)"/>
<path fill-rule="evenodd" clip-rule="evenodd" d="M305.76 68.3112C313.867 68.0837 321.992 69.7955 329.315 73.2782C336.125 76.5092 342.378 81.3898 347.979 87.7784C356.806 97.9139 363.757 111.83 368.077 127.951C368.716 130.336 369.331 132.838 369.828 135.316C373.677 153.619 374.181 173.541 371.15 191.465C367.824 211.191 357.231 230.752 341.29 246.525C334.633 253.198 327.062 258.949 318.875 263.642C311.254 267.962 303.749 270.64 297.202 271.505C292.526 272.092 287.872 271.727 283.322 270.502C282.001 270.134 280.666 269.714 279.303 269.19C273.655 266.981 268.487 263.865 263.878 259.933C252.365 250.351 238.572 244.49 223.914 238.306L223.576 238.163C206.615 230.987 187.451 222.88 167.467 207.206C159.263 200.848 153.226 191.799 150.546 181.794L150.365 181.12C150.073 180.032 149.82 178.877 149.58 177.775L149.524 177.567C147.472 167.006 148.25 155.185 151.786 143.293C155.112 132.068 160.35 121.552 167.259 112.089C180.557 93.9143 198.707 80.1617 219.753 72.2444C229.377 68.5547 239.51 66.5617 249.828 66.297C259.003 66.1167 268.334 66.7277 277.326 67.3185C286.723 67.9675 296.392 68.5989 305.76 68.3112ZM320.104 72.0793C315.45 70.8819 310.637 70.338 305.835 70.4578C296.35 70.7215 286.577 70.1179 277.194 69.5207C268.202 68.93 258.936 68.3568 249.866 68.5094C213.441 69.2133 167.55 97.6219 153.84 143.909C149.97 156.836 149.48 169.523 152.425 180.513C155.133 190.621 160.785 199.274 168.726 205.48C188.581 221.105 207.749 229.193 224.662 236.328L225.017 236.479C239.675 242.683 253.508 248.538 265.165 258.311C275.266 266.771 286.54 270.695 296.84 269.324C309.791 267.688 326.18 258.352 339.701 244.95C355.335 229.483 365.7 210.315 368.93 191.06C372.342 170.2 371.324 149.194 365.904 128.756C361.598 112.686 354.82 99.0017 346.297 89.1735L345.978 88.8144C338.467 80.271 329.742 74.6639 320.104 72.0793Z" fill="url(#paint7_linear_84_504)"/>
<path fill-rule="evenodd" clip-rule="evenodd" d="M280.138 54.1754L280.086 54.1893C270.026 53.5514 259.627 52.8932 249.398 53.0783C238.35 53.3162 226.945 55.5389 215.521 59.7665C203.956 64.0877 193.108 70.05 183.21 77.4804C172.938 85.1775 163.888 94.3249 156.344 104.736C148.544 115.437 142.599 127.253 138.777 139.945C134.769 153.186 133.806 166.389 135.984 178.251L136.141 179.042C136.426 180.521 136.763 181.987 137.138 183.386C140.305 195.205 146.691 204.939 156.124 212.357C179.092 230.482 201.131 239.744 220.586 247.865L220.652 247.893C237.028 254.766 252.527 261.271 265.485 271.948C270.714 276.325 276.592 279.806 282.959 282.211C284.373 282.721 285.839 283.217 287.264 283.558C292.431 285.007 297.8 285.346 303.112 284.645C310.464 283.675 318.86 280.592 327.397 275.749C336.589 270.452 345.058 263.905 352.547 256.398C370.432 238.549 382.363 216.518 386.063 194.247C389.496 173.882 388.999 151.292 384.615 130.576C384.02 127.735 383.308 124.87 382.572 122.123C377.683 103.876 369.83 88.2569 359.94 76.8506C353.754 69.7298 346.737 64.2763 339.1 60.6557C330.885 56.7454 321.715 54.8689 312.648 55.2427C302.218 55.6079 291.45 54.9093 281.043 54.2341L280.138 54.1754ZM358.324 78.2837C367.962 89.3688 375.654 104.809 380.53 123.003C386.663 146.306 387.832 170.161 383.923 193.932C380.267 215.746 368.564 237.383 350.986 254.927C335.814 270.049 317.325 280.67 302.791 282.62C287.895 284.667 275.022 277.059 266.839 270.363C253.713 259.573 238.245 253.062 221.889 246.177L221.413 245.977C202.076 237.88 180.221 228.679 157.411 210.734C148.48 203.738 142.146 193.99 139.09 182.586C135.715 169.989 136.33 155.49 140.793 140.627C156.573 88.1734 208.402 56.007 249.421 55.2388C259.532 55.0297 269.931 55.6879 279.94 56.3397L279.992 56.3258L280.919 56.3844C291.37 57.0457 302.183 57.7299 312.658 57.3514C318.161 57.1547 323.651 57.7392 328.973 59.1467C339.8 62.0238 349.553 68.3555 358.02 77.9764L358.324 78.2837Z" fill="url(#paint8_linear_84_504)"/>
<path fill-rule="evenodd" clip-rule="evenodd" d="M282.846 41.06L282.729 41.0359C271.652 40.3371 260.184 39.6317 248.953 39.8077C236.63 40.054 223.966 42.5582 211.223 47.2506C198.352 52.0884 186.291 58.709 175.353 67.0291C163.925 75.5918 153.891 85.8362 145.48 97.3682C136.776 109.257 130.151 122.477 125.819 136.583C121.267 151.526 120.151 166.437 122.615 179.777L122.688 180.258C123.029 181.944 123.383 183.683 123.828 185.342L123.883 185.549C125.286 190.785 127.363 195.84 130.072 200.558C133.893 207.146 138.871 212.868 144.846 217.545C170.687 237.979 195.487 248.326 217.361 257.453L217.441 257.486C235.585 265.07 252.733 272.253 267.197 283.934C273.045 288.757 279.566 292.565 286.68 295.27C288.212 295.804 289.744 296.338 291.286 296.703C297.106 298.31 303.101 298.704 309.115 297.926C317.258 296.8 326.56 293.363 335.998 287.945C346.182 281.994 355.562 274.702 363.87 266.309C383.713 246.436 396.902 221.845 401.108 197.105C404.956 174.351 404.414 149.106 399.532 125.912C398.827 122.657 398.083 119.467 397.25 116.356C391.805 96.0363 383.076 78.5962 372.02 65.9468C365.131 58.0698 357.349 52.0433 348.885 48.033C339.792 43.747 329.63 41.6919 319.574 42.1084C307.423 42.5862 294.94 41.8199 282.846 41.06ZM370.338 67.3419C381.142 79.6702 389.711 96.9307 395.156 117.251C402.039 143.353 403.322 170.122 398.954 196.738C394.859 221.059 381.831 245.218 362.295 264.787C345.435 281.694 324.95 293.572 308.767 295.797C292.221 298.119 277.748 289.719 268.523 282.246C253.782 270.361 236.502 263.102 218.175 255.456L218.082 255.417C196.394 246.354 171.782 236.068 146.158 215.805C136.29 208.004 129.235 197.227 125.832 184.527C122.04 170.375 122.753 153.961 127.874 137.199C145.596 78.7249 203.377 42.8525 248.976 41.9682C260.194 41.7405 271.61 42.4597 282.752 43.1965L283.212 43.2254C295.164 43.9765 307.55 44.755 319.611 44.3208C325.816 44.0472 331.998 44.7242 337.987 46.3418C350.004 49.5113 360.901 56.5918 370.338 67.3419Z" fill="url(#paint9_linear_84_504)"/>
<path fill-rule="evenodd" clip-rule="evenodd" d="M206.991 34.7728C192.799 40.0754 179.54 47.4061 167.497 56.5779C154.925 66.058 143.828 77.3097 134.565 90.0146C124.971 103.142 117.652 117.714 112.824 133.287C107.728 149.931 106.459 166.55 109.155 181.384L109.197 181.539C109.569 183.551 110.045 185.534 110.545 187.401L110.601 187.608C112.129 193.31 114.369 198.766 117.292 203.872C121.463 211.143 126.933 217.456 133.49 222.644C162.29 245.441 189.77 256.902 214.076 267.04L214.239 267.108C234.104 275.382 252.842 283.186 268.843 295.883C275.784 301.468 283 305.59 290.374 308.226C291.972 308.798 293.607 309.304 295.229 309.758C301.703 311.524 308.375 311.959 315.025 311.066C323.96 309.783 334.167 305.992 344.558 299.985C355.747 293.431 366.039 285.396 375.165 276.117C385.33 265.948 394.027 254.45 401.002 241.914C408.436 228.81 413.47 214.628 416.11 199.808C420.298 174.796 419.698 146.844 414.333 121.224C413.582 117.592 412.727 113.987 411.797 110.514C405.796 88.1205 396.153 68.9254 383.981 55.0189C376.39 46.3857 367.844 39.7863 358.567 35.4383C348.529 30.7385 337.388 28.5567 326.358 29.0677C312.946 29.6057 299.041 28.7201 285.644 27.865L285.049 27.8285C273.088 27.0935 260.696 26.3321 248.509 26.5371C234.923 26.8437 220.988 29.5775 206.991 34.7728ZM409.768 111.446C417.415 140.399 418.799 170.03 413.932 199.558C409.36 226.452 395.059 253.118 373.566 274.712C355.056 293.339 332.47 306.502 314.653 309.054C308.276 309.929 301.89 309.529 295.704 307.798C287.086 305.495 278.484 300.967 270.131 294.26C253.915 281.395 235.041 273.514 215.041 265.163L214.909 265.108C190.729 255.044 163.374 243.659 134.829 221.007C123.971 212.416 116.286 200.53 112.549 186.586C108.327 170.827 109.114 152.615 114.879 133.903C135.374 66.9076 199.068 29.6729 248.532 28.6976C260.22 28.4762 272.16 29.1952 283.808 29.8967C284.389 29.9317 284.97 29.9667 285.55 30.0015L285.993 30.0292C299.304 30.862 313.052 31.7221 326.419 31.1625C333.288 30.8777 340.147 31.5955 346.842 33.3574C360.062 36.8711 372.039 44.6625 382.351 56.4002C394.284 70.0373 403.768 89.0528 409.768 111.446Z" fill="url(#paint10_linear_84_504)"/>
<path fill-rule="evenodd" clip-rule="evenodd" d="M431.013 202.76C428.374 218.412 422.802 233.906 414.565 248.781C406.907 262.5 397.447 275.091 386.36 286.173C376.095 296.591 364.556 305.572 353.018 312.275C341.725 318.857 330.627 323.053 320.887 324.44C313.601 325.448 306.303 324.959 299.162 322.983C297.488 322.543 295.721 321.961 294.005 321.365C286.017 318.505 278.078 313.965 270.465 307.949C253.018 294.199 232.542 285.696 210.939 276.725L210.352 276.48C183.773 265.409 153.65 252.862 122.161 227.847C114.97 222.162 108.995 215.206 104.475 207.251C101.388 201.744 98.9575 195.784 97.3185 189.667L97.249 189.408C96.6657 187.231 96.1721 184.974 95.7304 182.703L95.7165 182.651C92.7482 166.39 94.1473 148.181 99.8016 129.887C105.074 112.862 113.099 96.9888 123.584 82.6231C133.738 68.6796 145.832 56.3826 159.561 46.0369C172.71 36.0134 187.233 28.0106 202.679 22.2052C217.944 16.559 233.189 13.5298 247.998 13.2286C261.428 12.9637 275.098 13.8011 288.325 14.6461C303.077 15.5825 318.337 16.5495 333.166 15.9095C345.185 15.3558 357.318 17.7162 368.235 22.7917C378.338 27.5294 387.701 34.6879 395.943 44.0912C409.281 59.2407 419.787 80.2048 426.357 104.724C427.399 108.612 428.351 112.579 429.199 116.574C435.099 144.606 435.692 175.227 431.013 202.76ZM288.31 16.8724L288.275 16.3262L288.259 16.8862L287.039 16.813C274.208 16.0418 261.018 15.2491 248.101 15.479C184.596 16.7165 121.732 66.1738 101.832 130.621C95.4092 151.232 94.5103 171.307 99.1633 188.673C103.233 203.861 111.652 216.828 123.448 226.224C154.826 251.153 184.856 263.638 211.365 274.658L211.627 274.767L211.811 274.844L211.812 274.844L211.812 274.844L211.813 274.844C233.557 283.861 254.111 292.383 271.753 306.326C280.908 313.54 290.286 318.472 299.674 320.957C306.514 322.847 313.577 323.288 320.59 322.297C340.329 319.453 364.345 305.406 384.851 284.689C408.288 261.019 423.913 231.831 428.925 202.43C434.266 170.942 432.673 136.589 424.409 105.746C417.839 81.2269 407.426 60.4045 394.393 45.5622L394.233 45.3827C383.059 32.7092 370.096 24.3486 355.79 20.5147C348.442 18.5945 340.891 17.7843 333.321 18.1459C318.426 18.748 303.114 17.7949 288.31 16.8724Z" fill="url(#paint11_linear_84_504)"/>
<path fill-rule="evenodd" clip-rule="evenodd" d="M361.568 324.485C374.059 317.193 386.548 307.402 397.645 296.15C409.626 284.051 419.863 270.418 428.166 255.581C437.124 239.458 443.116 222.63 446.006 205.632C451.138 175.644 450.448 142.382 444.117 111.91C443.209 107.486 442.16 103.156 441.035 98.9572C433.91 72.3648 422.475 49.5939 408.022 33.1874C399.091 23.0797 389.016 15.3344 378.034 10.2209C366.187 4.78357 353.062 2.24462 340.068 2.89279C323.925 3.60695 307.258 2.57254 291.151 1.55475L289.948 1.48251C276.088 0.649657 261.71 -0.214337 247.633 0.0477643C231.601 0.343512 215.046 3.66814 198.474 9.83093C181.708 16.1011 165.986 24.8141 151.733 35.6893C136.861 46.9525 123.716 60.3085 112.696 75.3731C101.321 90.9774 92.6025 108.203 86.8204 126.643C80.646 146.52 79.0657 166.334 82.2534 184.036C82.7128 186.58 83.2758 189.096 83.9286 191.532L83.9981 191.792C85.762 198.375 88.3554 204.736 91.6847 210.733C96.5694 219.425 103.022 226.919 110.846 233.101C145.441 260.611 178.436 274.271 207.617 286.342C231.042 296.011 253.17 305.194 272.139 320.001C280.488 326.487 289.071 331.354 297.727 334.424C299.508 335.058 301.379 335.612 303.184 336.129C310.927 338.276 318.902 338.806 326.876 337.67C337.356 336.14 349.359 331.59 361.568 324.485ZM326.528 335.541C318.865 336.594 311.19 336.15 303.683 334.05C293.509 331.332 283.371 326.048 273.398 318.275C254.205 303.25 231.959 294.043 208.402 284.298L208.229 284.227C179.274 272.235 146.473 258.65 112.157 231.36L111.866 231.105C99.2642 220.981 90.294 206.994 85.9187 190.666C80.849 171.745 81.8598 149.806 88.8746 127.259C110.583 57.327 178.855 3.58701 247.657 2.20831C261.499 1.91296 275.649 2.7643 289.349 3.58857L291.057 3.69124C307.216 4.69514 323.883 5.72955 340.143 5.03944C365.796 3.94401 388.132 13.9043 406.406 34.6205C420.606 50.7058 431.882 73.2971 439.035 99.9933C448.035 133.584 449.77 170.954 443.904 205.251C438.452 237.158 421.517 268.919 396.122 294.614C373.928 317.117 347.915 332.421 326.528 335.541Z" fill="url(#paint12_linear_84_504)"/>
</mask>
<g mask="url(#mask0_84_504)">
<g filter="url(#filter0_f_84_504)">
<circle cx="187.112" cy="195.496" r="134.239" fill="#0F003A"/>
<circle cx="263.239" cy="142.239" r="50.9075" fill="#0F003A"/>
<circle cx="241.936" cy="174.82" r="32.7374" fill="#E5CB56"/>
<circle cx="319.315" cy="153.829" r="32.7374" fill="#792170"/>
<circle cx="208.729" cy="149.131" r="32.7374" fill="#F91616"/>
<circle cx="158.134" cy="155.865" r="34.7737" fill="#0F003A"/>
<circle cx="341.401" cy="121.092" r="34.7737" fill="#0F003A"/>
<circle cx="88.2729" cy="139.575" r="46.6782" fill="#00B2FF"/>
<circle cx="358.318" cy="178.421" r="34.7737" fill="#0F003A"/>
<circle cx="99.5513" cy="134.877" r="48.8712" fill="#0F003A"/>
</g>
</g>
<g filter="url(#filter1_f_84_504)">
<ellipse cx="263.301" cy="179.745" rx="111.563" ry="43.4683" transform="rotate(1.53122 263.301 179.745)" fill="#FFFCE5" fill-opacity="0.6"/>
</g>
<g filter="url(#filter2_f_84_504)">
<ellipse cx="263.003" cy="177.871" rx="36.1351" ry="22.9267" transform="rotate(1.53122 263.003 177.871)" fill="#FFFCE5" fill-opacity="0.6"/>
</g>
<defs>
<filter id="filter0_f_84_504" x="-21.0606" y="-1.39862" width="476.807" height="407.887" filterUnits="userSpaceOnUse" color-interpolation-filters="sRGB">
<feFlood flood-opacity="0" result="BackgroundImageFix"/>
<feBlend mode="normal" in="SourceGraphic" in2="BackgroundImageFix" result="shape"/>
<feGaussianBlur stdDeviation="31.3277" result="effect1_foregroundBlur_84_504"/>
</filter>
<filter id="filter1_f_84_504" x="18.9488" y="3.36588" width="488.703" height="352.757" filterUnits="userSpaceOnUse" color-interpolation-filters="sRGB">
<feFlood flood-opacity="0" result="BackgroundImageFix"/>
<feBlend mode="normal" in="SourceGraphic" in2="BackgroundImageFix" result="shape"/>
<feGaussianBlur stdDeviation="66.411" result="effect1_foregroundBlur_84_504"/>
</filter>
<filter id="filter2_f_84_504" x="176.758" y="104.813" width="172.491" height="146.115" filterUnits="userSpaceOnUse" color-interpolation-filters="sRGB">
<feFlood flood-opacity="0" result="BackgroundImageFix"/>
<feBlend mode="normal" in="SourceGraphic" in2="BackgroundImageFix" result="shape"/>
<feGaussianBlur stdDeviation="25.059" result="effect1_foregroundBlur_84_504"/>
</filter>
<linearGradient id="paint0_linear_84_504" x1="360.614" y1="192.76" x2="169.107" y2="140.629" gradientUnits="userSpaceOnUse">
<stop stop-color="#E9B49F"/>
<stop offset="0.091" stop-color="#E9B49F"/>
<stop offset="0.435" stop-color="#BC457F"/>
<stop offset="1" stop-color="#6F3FBF"/>
</linearGradient>
<linearGradient id="paint1_linear_84_504" x1="360.614" y1="192.76" x2="169.107" y2="140.629" gradientUnits="userSpaceOnUse">
<stop stop-color="#E9B49F"/>
<stop offset="0.091" stop-color="#E9B49F"/>
<stop offset="0.435" stop-color="#BC457F"/>
<stop offset="1" stop-color="#6F3FBF"/>
</linearGradient>
<linearGradient id="paint2_linear_84_504" x1="360.614" y1="192.76" x2="169.107" y2="140.629" gradientUnits="userSpaceOnUse">
<stop stop-color="#E9B49F"/>
<stop offset="0.091" stop-color="#E9B49F"/>
<stop offset="0.435" stop-color="#BC457F"/>
<stop offset="1" stop-color="#6F3FBF"/>
</linearGradient>
<linearGradient id="paint3_linear_84_504" x1="360.614" y1="192.76" x2="169.107" y2="140.629" gradientUnits="userSpaceOnUse">
<stop stop-color="#E9B49F"/>
<stop offset="0.091" stop-color="#E9B49F"/>
<stop offset="0.435" stop-color="#BC457F"/>
<stop offset="1" stop-color="#6F3FBF"/>
</linearGradient>
<linearGradient id="paint4_linear_84_504" x1="360.614" y1="192.76" x2="169.107" y2="140.629" gradientUnits="userSpaceOnUse">
<stop stop-color="#E9B49F"/>
<stop offset="0.091" stop-color="#E9B49F"/>
<stop offset="0.435" stop-color="#BC457F"/>
<stop offset="1" stop-color="#6F3FBF"/>
</linearGradient>
<linearGradient id="paint5_linear_84_504" x1="360.614" y1="192.76" x2="169.107" y2="140.629" gradientUnits="userSpaceOnUse">
<stop stop-color="#E9B49F"/>
<stop offset="0.091" stop-color="#E9B49F"/>
<stop offset="0.435" stop-color="#BC457F"/>
<stop offset="1" stop-color="#6F3FBF"/>
</linearGradient>
<linearGradient id="paint6_linear_84_504" x1="360.614" y1="192.76" x2="169.107" y2="140.629" gradientUnits="userSpaceOnUse">
<stop stop-color="#E9B49F"/>
<stop offset="0.091" stop-color="#E9B49F"/>
<stop offset="0.435" stop-color="#BC457F"/>
<stop offset="1" stop-color="#6F3FBF"/>
</linearGradient>
<linearGradient id="paint7_linear_84_504" x1="360.614" y1="192.76" x2="169.107" y2="140.629" gradientUnits="userSpaceOnUse">
<stop stop-color="#E9B49F"/>
<stop offset="0.091" stop-color="#E9B49F"/>
<stop offset="0.435" stop-color="#BC457F"/>
<stop offset="1" stop-color="#6F3FBF"/>
</linearGradient>
<linearGradient id="paint8_linear_84_504" x1="360.614" y1="192.76" x2="169.107" y2="140.629" gradientUnits="userSpaceOnUse">
<stop stop-color="#E9B49F"/>
<stop offset="0.091" stop-color="#E9B49F"/>
<stop offset="0.435" stop-color="#BC457F"/>
<stop offset="1" stop-color="#6F3FBF"/>
</linearGradient>
<linearGradient id="paint9_linear_84_504" x1="360.614" y1="192.76" x2="169.107" y2="140.629" gradientUnits="userSpaceOnUse">
<stop stop-color="#E9B49F"/>
<stop offset="0.091" stop-color="#E9B49F"/>
<stop offset="0.435" stop-color="#BC457F"/>
<stop offset="1" stop-color="#6F3FBF"/>
</linearGradient>
<linearGradient id="paint10_linear_84_504" x1="360.614" y1="192.76" x2="169.107" y2="140.629" gradientUnits="userSpaceOnUse">
<stop stop-color="#E9B49F"/>
<stop offset="0.091" stop-color="#E9B49F"/>
<stop offset="0.435" stop-color="#BC457F"/>
<stop offset="1" stop-color="#6F3FBF"/>
</linearGradient>
<linearGradient id="paint11_linear_84_504" x1="360.614" y1="192.76" x2="169.107" y2="140.629" gradientUnits="userSpaceOnUse">
<stop stop-color="#E9B49F"/>
<stop offset="0.091" stop-color="#E9B49F"/>
<stop offset="0.435" stop-color="#BC457F"/>
<stop offset="1" stop-color="#6F3FBF"/>
</linearGradient>
<linearGradient id="paint12_linear_84_504" x1="360.614" y1="192.76" x2="169.107" y2="140.629" gradientUnits="userSpaceOnUse">
<stop stop-color="#E9B49F"/>
<stop offset="0.091" stop-color="#E9B49F"/>
<stop offset="0.435" stop-color="#BC457F"/>
<stop offset="1" stop-color="#6F3FBF"/>
</linearGradient>
</defs>
</svg>
